<svg id="Layer_1" data-name="Layer 1" xmlns="http://www.w3.org/2000/svg" viewBox="0 0 208.95 50.33"><title>logo-securify</title><g id="Group_61" data-name="Group 61"><g id="logo"><path id="Path_34" data-name="Path 34" d="M38.4,15.82h5.9V8.48H40.72v3.14a1.14,1.14,0,0,1-1.14,1.14H34.74a1.14,1.14,0,0,1-1.14-1.14h0V8.48H30v3.14a1.14,1.14,0,0,1-1.14,1.14H24a1.14,1.14,0,0,1-1.14-1.14V8.48H19.27v7.34H35A1.14,1.14,0,0,1,35.66,18,1.06,1.06,0,0,1,35,18H20.27l1.81,2.52H41.49L43.3,18H38.4a1.14,1.14,0,0,1,0-2.28Z" transform="translate(-9.43 -6.19)" style="fill:#fff"/><path id="Path_35" data-name="Path 35" d="M35.89,7.34v3.14h2.57V7.34A1.15,1.15,0,0,1,39.6,6.19H34.74A1.16,1.16,0,0,1,35.89,7.34Z" transform="translate(-9.43 -6.19)" style="fill:#fff"/><path id="Path_36" data-name="Path 36" d="M25.17,44.7h19l-1.68-2.51H21L19.27,44.7H21.8a1.15,1.15,0,0,1,1.11,1.18A1.13,1.13,0,0,1,21.8,47H18.38v7.28H45.19V47h-20a1.15,1.15,0,1,1-.07-2.29Z" transform="translate(-9.43 -6.19)" style="fill:#fff"/><path id="Path_37" data-name="Path 37" d="M214.72,6.19H45.58a1.15,1.15,0,0,1,1.14,1.15h0v10h0v.14h0l-3.48,4.66,1,18.56,3,4.54h0v.12h0v.14h0v.14h0a.43.43,0,0,1,0,.16v8.41a1.16,1.16,0,0,1,1.18,1.11,1.14,1.14,0,0,1-1.11,1.17.09.09,0,0,1-.07,0H214.44a3.93,3.93,0,0,0,3.94-3.93V10.13A4,4,0,0,0,214.72,6.19Zm-140,18.94H69.28v-6.8H62.69v6.53L73.51,35.05A4,4,0,0,1,74.69,38v8.59a2.92,2.92,0,0,1-2.47,3.3,2.68,2.68,0,0,1-.8,0H60.57a2.87,2.87,0,0,1-3.25-2.48,2.82,2.82,0,0,1,0-.82V38h5.39v7.35H69.3V38.23L58.48,28a3.84,3.84,0,0,1-1.18-2.88v-8a2.92,2.92,0,0,1,2.44-3.32,2.89,2.89,0,0,1,.83,0H71.42a2.89,2.89,0,0,1,3.27,2.46,2.68,2.68,0,0,1,0,.8ZM94,49.86H79V13.79H93.79v4.78H84.35V29.11h8.12v4.62H84.34V45H94Zm21.36-24.31H110V18.43h-7V45.24h7V37.66h5.37V46.6a2.92,2.92,0,0,1-2.46,3.3,3,3,0,0,1-.84,0H100.81a2.87,2.87,0,0,1-3.22-2.48,2.82,2.82,0,0,1,0-.82V17.09q0-3.31,3.21-3.32h11.25a2.93,2.93,0,0,1,3.3,2.5,2.82,2.82,0,0,1,0,.82Zm22.28,21a2.93,2.93,0,0,1-2.5,3.3,2.82,2.82,0,0,1-.82,0H122.87a2.91,2.91,0,0,1-3.3-2.46,3,3,0,0,1,0-.84V13.79H125V45.25h7.26V13.79h5.39Zm17.17,3.3-5.9-16.76v-3.3h5.31V18.43h-6.86V49.9H142V13.79h14.32a2.9,2.9,0,0,1,3.25,2.52,2.68,2.68,0,0,1,0,.8V30.23A2.85,2.85,0,0,1,158,33.18a11.15,11.15,0,0,1-3.5.35l5.9,16.35Zm14.4,0h-5.39V13.79h5.39Zm19.2-31.29H179V29.24h8v4.69h-8V49.86h-5.39V13.79h14.77Zm21.16-4.5L204.8,29.12c-.59,1.5-1.39,4-2.38,7.53v13.2H197V36.6A29.35,29.35,0,0,0,196,32.8c-.81-2.29-1.25-3.54-1.31-3.74l-4.77-15v-.21h5.55l4.3,15.73L204,13.85h5.53Z" transform="translate(-9.43 -6.19)" style="fill:#fff"/><path id="Path_38" data-name="Path 38" d="M22.57,22.89l-.94,17H41.94l-.94-17Z" transform="translate(-9.43 -6.19)" style="fill:#fff"/><path id="Path_39" data-name="Path 39" d="M15,55.36a1.14,1.14,0,0,1,1.14-1.14V45.66h0v-.13h0V45.4h0v-.12h0l3.17-4.63,1-18.56-3.17-4.47h0v-.23h0v-10a1.15,1.15,0,0,1,.93-1.15H13.37a3.94,3.94,0,0,0-3.94,3.94h0V52.6a3.93,3.93,0,0,0,3.94,3.93H16.1A1.14,1.14,0,0,1,15,55.39v0Z" transform="translate(-9.43 -6.19)" style="fill:#fff"/><path id="Path_40" data-name="Path 40" d="M25.17,7.34v3.14h2.52V7.34a1.15,1.15,0,0,1,1.13-1.15H24A1.15,1.15,0,0,1,25.17,7.3Z" transform="translate(-9.43 -6.19)" style="fill:#fff"/></g></g></svg>