<svg id="Layer_1" data-name="Layer 1" xmlns="http://www.w3.org/2000/svg" viewBox="0 0 1099.38 397.37"><defs><style>.cls-1{fill:#18294d;stroke:#000;stroke-width:0.68px;}.cls-1,.cls-12,.cls-13,.cls-9{stroke-miterlimit:10;}.cls-10,.cls-2,.cls-3,.cls-7{fill:#fff;}.cls-2{opacity:0.1;}.cls-10,.cls-3{font-size:21px;}.cls-11,.cls-19,.cls-21,.cls-3,.cls-4,.cls-7{font-family:Poppins-Regular, Poppins;}.cls-4{font-size:15px;fill:#ccc;}.cls-5{fill:#ff1d25;}.cls-6{fill:#f7931e;}.cls-7{font-size:16px;}.cls-8{letter-spacing:-0.02em;}.cls-12,.cls-13,.cls-9{fill:none;}.cls-12,.cls-9{stroke:#fff;}.cls-9{stroke-width:0.62px;}.cls-10{font-family:Poppins-SemiBold, Poppins;}.cls-10,.cls-18,.cls-20{font-weight:700;}.cls-11,.cls-17{font-size:18px;}.cls-12{stroke-width:1.45px;}.cls-13{stroke:#ed1c24;stroke-width:3px;}.cls-14{fill:#ed1c24;}.cls-15{letter-spacing:-0.02em;}.cls-16,.cls-21{letter-spacing:0em;}.cls-17{font-family:Poppins-Bold, Poppins;}.cls-18{fill:red;}.cls-20{fill:#ff931e;}</style></defs><title>report-legend</title><rect class="cls-1" x="225.15" y="6.65" width="614.5" height="282"/><rect class="cls-2" x="239.35" y="112.15" width="586.1" height="153" rx="4.58" ry="4.58"/><text class="cls-3" transform="translate(264.08 145.04)">Unrestricted write to storage</text><text class="cls-4" transform="translate(285.08 175.04)">Contract fields that can be modified by any user must be inspected.</text><rect class="cls-5" x="284.65" y="203.15" width="10" height="10"/><rect class="cls-6" x="284.65" y="235.15" width="10" height="10"/><text class="cls-7" transform="translate(305.08 213.04)">Token: 63</text><text class="cls-7" transform="translate(305.08 245.04)">Token: 56</text><text class="cls-3" transform="translate(246.08 42.04)">TOTAL issues</text><text class="cls-3" transform="translate(246.08 94.04)">Insecure coding<tspan class="cls-8" x="168.48" y="0"> </tspan><tspan x="173.25" y="0">patterns</tspan></text><line class="cls-9" x1="239.35" y1="59.15" x2="825.45" y2="59.15"/><text class="cls-10" transform="translate(798.08 42.04)">21</text><text class="cls-10" transform="translate(806.08 94.04)">5</text><text class="cls-11" transform="translate(896.9 15.35)">Total number of <tspan x="0" y="21.6">security issues </tspan><tspan x="0" y="43.2">found</tspan></text><rect class="cls-2" x="731.65" y="122.15" width="49" height="24" rx="3.96" ry="3.96"/><text class="cls-7" transform="translate(740.08 139.04)">info</text><line class="cls-12" x1="804.51" y1="130.01" x2="796.51" y2="138.01"/><line class="cls-12" x1="803.78" y1="130.01" x2="811.78" y2="138.01"/><line class="cls-13" x1="887.15" y1="99.65" x2="834.64" y2="87.56"/><polygon class="cls-14" points="838.45 80.77 824.15 85.15 835.09 95.34 838.45 80.77"/><text class="cls-11" transform="translate(896.9 103.35)">Number of issues<tspan x="0" y="21.6">in the category</tspan></text><line class="cls-13" x1="887.15" y1="33.15" x2="834.91" y2="33.15"/><polygon class="cls-14" points="837.1 25.67 824.15 33.15 837.1 40.63 837.1 25.67"/><line class="cls-13" x1="182.65" y1="87.65" x2="230.88" y2="87.65"/><polygon class="cls-14" points="228.69 95.13 241.65 87.65 228.69 80.17 228.69 95.13"/><text class="cls-11" transform="translate(32.4 92.35)">Category name</text><line class="cls-13" x1="183.15" y1="136.65" x2="246.38" y2="136.65"/><polygon class="cls-14" points="244.19 144.13 257.15 136.65 244.19 129.17 244.19 144.13"/><text class="cls-11" transform="translate(5.6 139.35)">Vulnerability name</text><line class="cls-13" x1="887.15" y1="239.65" x2="794.1" y2="154.9"/><polygon class="cls-14" points="800.76 150.84 786.15 147.65 790.69 161.9 800.76 150.84"/><text class="cls-11" transform="translate(897.4 234.85)">Further information<tspan x="0" y="21.6">about the vulnerability</tspan></text><line class="cls-13" x1="887.15" y1="174.65" x2="832.53" y2="143.93"/><polygon class="cls-14" points="838.1 138.48 823.15 138.65 830.77 151.52 838.1 138.48"/><text class="cls-11" transform="translate(897.9 169.35)">Show less <tspan x="0" y="21.6">information</tspan></text><text class="cls-11" transform="translate(0 175.35)">Short description of<tspan x="32.06" y="21.6">the vulnera</tspan><tspan class="cls-15" x="133.81" y="21.6">b</tspan><tspan class="cls-16" x="145.58" y="21.6">ility</tspan></text><line class="cls-13" x1="182.65" y1="180.65" x2="265.46" y2="170.91"/><polygon class="cls-14" points="264.16 178.59 276.15 169.65 262.41 163.74 264.16 178.59"/><text class="cls-17" transform="translate(118.4 343.85)"><tspan class="cls-18">Violation</tspan><tspan class="cls-19" x="83.48" y="0">: the contract is guaranteed</tspan><tspan class="cls-19"><tspan x="0" y="21.6">to violate the vulnerabililty</tspan></tspan></text><line class="cls-13" x1="175.15" y1="322.65" x2="273.46" y2="226.19"/><polygon class="cls-14" points="277.14 233.06 281.15 218.65 266.66 222.38 277.14 233.06"/><text class="cls-17" transform="translate(503.4 343.85)"><tspan class="cls-20">Warning</tspan><tspan class="cls-21" x="80.69" y="0">: the contract may</tspan><tspan class="cls-19"><tspan x="0" y="21.6">(but is not guaranteed to) violate </tspan><tspan x="0" y="43.2">the vulnerability</tspan></tspan></text><line class="cls-13" x1="546.15" y1="323.65" x2="396.66" y2="244.68"/><polygon class="cls-14" points="402.09 239.09 387.15 239.65 395.11 252.31 402.09 239.09"/></svg>