<?xml version="1.0" encoding="utf-8"?>
<!-- Generator: Adobe Illustrator 22.0.0, SVG Export Plug-In . SVG Version: 6.00 Build 0)  -->
<svg version="1.1" id="Layer_1" xmlns="http://www.w3.org/2000/svg" xmlns:xlink="http://www.w3.org/1999/xlink" x="0px" y="0px"
	 viewBox="0 0 200 200" style="enable-background:new 0 0 200 200;" xml:space="preserve">
<style type="text/css">
	.st0{clip-path:url(#SVGID_2_);}
	.st1{fill:#FFFFFF;}
	.st2{fill:none;stroke:#FFFFFF;stroke-width:0.4637;stroke-miterlimit:10;}
	.st3{fill:none;stroke:#FFFFFF;stroke-width:5.7966;stroke-linecap:round;stroke-linejoin:round;stroke-miterlimit:10;}
	.st4{fill:none;stroke:#FFFFFF;stroke-width:6.9559;stroke-linecap:round;stroke-linejoin:round;stroke-miterlimit:10;}
</style>
<g>
	<defs>
		<rect id="SVGID_1_" width="200" height="200"/>
	</defs>
	<clipPath id="SVGID_2_">
		<use xlink:href="#SVGID_1_"  style="overflow:visible;"/>
	</clipPath>
	<g id="logo-icon-white" class="st0">
		<rect x="-59.2" y="326.6" class="st1" width="200" height="200"/>
		<g id="Group_1" transform="translate(25.3 14.218)">
			<line id="Line_39" class="st2" x1="159.7" y1="134.6" x2="75" y2="-12.1"/>
			<line id="Line_40" class="st2" x1="-9.9" y1="36.8" x2="159.7" y2="134.6"/>
			<line id="Line_41" class="st2" x1="159.7" y1="36.8" x2="-9.9" y2="134.6"/>
			<line id="Line_42" class="st2" x1="75" y1="183.7" x2="75" y2="-12.1"/>
			<line id="Line_43" class="st2" x1="159.7" y1="134.6" x2="-9.9" y2="134.6"/>
			<line id="Line_44" class="st2" x1="75" y1="-12.1" x2="-9.9" y2="134.6"/>
			<line id="Line_45" class="st2" x1="159.7" y1="36.8" x2="-9.9" y2="36.8"/>
			<line id="Line_46" class="st2" x1="75" y1="183.7" x2="159.7" y2="36.8"/>
			<line id="Line_47" class="st2" x1="-9.9" y1="36.8" x2="75" y2="183.7"/>
			<path id="Path_10" class="st2" d="M159.7,134.6V36.8l-20.6-11.9L75-12.1L-9.9,36.8v97.9l84.9,49L159.7,134.6z"/>
			<line id="Line_48" class="st2" x1="-9.9" y1="85.8" x2="159.7" y2="85.8"/>
			<line id="Line_49" class="st2" x1="31.9" y1="158.8" x2="118" y2="12.6"/>
			<line id="Line_50" class="st2" x1="116" y1="159.8" x2="33.9" y2="11.6"/>
			<path id="Path_11" class="st3" d="M116.8,61.2l-13.9-24l-55.5-0.5L32,61.2l84.7,49l-15.3,24.4H46.1L32,110.2"/>
			<path id="Path_12" class="st4" d="M117.4,12.6l-43-24.7l-84.7,48.9v97.9l84.7,49l41-23.8"/>
		</g>
	</g>
</g>
</svg>
